<svg xmlns="http://www.w3.org/2000/svg" viewBox="0 0 256 256" xmlns:v="https://vecta.io/nano"><path d="M42.6 96.2l4.2-14.8c1.2-4.3 3.9-8 7.5-10.5l69.2-47.5h8.7L198 67.8c9.4 6.4 15.1 17 15.1 28.4h0l-27.4-12.5-28.8 13-28.3-14.5-29.8 14.5-28-12.6-28.2 12.1z" fill="#1594f0"/><path d="M193.2 111.4a13.86 13.86 0 0 0-5 .9c5.3 2 9 7.1 9 13.1s-3.7 11.1-9 13.1a13.86 13.86 0 0 0 5 .9c7.7 0 14-6.3 14-14s-6.3-14-14-14zm-8.5 47L157.8 194c-3 4-7.8 6.4-12.8 6.4H23l1.5 10h136.8l38.4-50.8-5.5-3.1c-3.3-1.9-7.3-1-9.5 1.9z" fill="#d2e9f7"/><path d="M168.2 225.4H22.4c-4.1 0-7.5-3.4-7.5-7.5h0c0-4.1 3.4-7.5 7.5-7.5h138.8L214 143c6.4-8.2 16.6-12.4 26.9-11h0l-72.7 93.4z" fill="#fbda73"/><g fill="none" stroke="#00194e" stroke-width="4" stroke-miterlimit="10"><path d="M128.2,173.1l-28.3-22.6c-2.7-2-6.4-1.3-8.2,1.6l-17.4,28.6" stroke-linecap="round"/><path d="M207.2 125.4c0 5.8-3.5 10.8-8.6 12.9-1.7.7-3.5 1.1-5.4 1.1-7.7 0-14-6.3-14-14s6.3-14 14-14 14 6.3 14 14zM22.3 224.9h145.9l72.8-93.4c.4-.5 0-1.1-.5-1.1h0c-10.4 0-20.3 4.8-26.8 13.1l-52.4 66.4h-139c-4.1 0-7.4 3.4-7.4 7.5h0c0 4.1 3.3 7.5 7.4 7.5z"/><path d="M168.2 224.3l11 21.6M42.7 224.3l-11 21.6M189.3 155l-8-5.1c-7.3-4.7-17-2.7-21.8 4.5l-17.4 26c-2.2 3.4-5.9 5.5-9.9 5.7l-92.6 6.1-7.2-13.4c-2-3.7-6.7-4.7-10.1-2.3h0c-2.2 1.6-3.2 4.3-2.7 6.9l3.2 15.5" stroke-linecap="round"/><path d="M198.3 67.9L133.9 24c-3.7-2.5-8.5-2.5-12.1 0L57.3 67.9c-9.2 6.3-14.8 16.7-14.8 27.9h0c0 .4.4.6.8.5l21.6-11c3.8-1.9 8.3-1.9 12.2 0l21.7 11.1c.4.2.9.2 1.3 0l21.7-11.1c3.8-1.9 8.3-1.9 12.2 0l21.7 11.1c.4.2.9.2 1.3 0l21.7-11.1c3.8-1.9 8.3-1.9 12.2 0l21.6 11.1c.4.2.8-.1.8-.5h0c-.2-11.3-5.8-21.7-15-28z"/><path d="M128.1 96.9l-.3 60m.4-146.8L128 20" stroke-linecap="round"/></g></svg>