<svg xmlns="http://www.w3.org/2000/svg" viewBox="0 0 256 256" xmlns:v="https://vecta.io/nano"><circle cx="129" cy="61.8" r="45" fill="#fbda73"/><path d="M62 232.8h38v7H62zm95 0h38v7h-38zm-89-19v-14.9c0-11.2 2.7-22.3 8-32.1h0l-11.7 11.1c-4.6 4.4-7.3 10.5-7.3 16.9v25h145v-6H68z" fill="#d2e9f7"/><g fill="none" stroke="#00194e" stroke-width="4"><g stroke-linecap="round" stroke-miterlimit="10"><path d="M58.5 172.3v-7.5c0-4.7 3.8-8.5 8.5-8.5h11.8c.5 0 .9-.3 1.1-.7l7-29.2c1.5-3.1 4.6-5.1 8.1-5.1h69c3.5 0 6.6 2 8.1 5.1l7 29.2c.2.4.6.7 1.1.7H192c4.7 0 8.5 3.8 8.5 8.5v7.5m-21.4-7l13 9.6c5.9 4.4 9.4 11.4 9.4 18.7v25a1.58 1.58 0 0 1-1.6 1.6H58.1a1.58 1.58 0 0 1-1.6-1.6v-25c0-7.4 3.5-14.3 9.4-18.7l11.2-8.3c1.2-.9 2.6-1.3 4-1.3h80.4"/><path d="M71.2 183.5h0a9.82 9.82 0 0 0 9.8 9.8h7.5c1.2 0 2.4-.6 3-1.7l1.9-3m92.9-5.1h0a9.82 9.82 0 0 1-9.8 9.8H169c-1.2 0-2.4-.6-3-1.7l-1.8-3m-58.7 14.7h46m-52 26v8.9c0 1.1-.9 2.1-2.1 2.1H63.6c-1.1 0-2.1-.9-2.1-2.1v-8.9m133 0v8.9c0 1.1-.9 2.1-2.1 2.1h-33.9c-1.1 0-2.1-.9-2.1-2.1v-8.9"/></g><path d="M174.6 61.7c0 13.9-6.1 26.3-15.9 34.8-8.1 7-18.6 11.2-30.1 11.2-25.4 0-46-20.6-46-46s20.6-46 46-46c11.5 0 22 4.2 30.1 11.2 9.8 8.5 15.9 21 15.9 34.8z" stroke-miterlimit="10"/></g><circle cx="129" cy="61.7" r="17" fill="#1594f0"/><g fill="none" stroke-width="4" stroke-linecap="round" stroke-miterlimit="10" stroke="#fff"><path d="M121 62.3h17"/><path d="M129 70.3v-17"/></g></svg>