<?xml version="1.0" encoding="utf-8"?>
<!-- Generator: Adobe Illustrator 24.1.1, SVG Export Plug-In . SVG Version: 6.00 Build 0)  -->
<svg version="1.1" id="icons" xmlns="http://www.w3.org/2000/svg" xmlns:xlink="http://www.w3.org/1999/xlink" x="0px" y="0px"
	 viewBox="0 0 256 256" style="enable-background:new 0 0 256 256;" xml:space="preserve">
<style type="text/css">
	.st0{fill:#FBDA73;stroke:#00194E;stroke-miterlimit:10;}
	.st1{fill:#D2E9F7;stroke:#00194E;stroke-miterlimit:10;}
	.st2{fill:none;stroke:#00194E;stroke-width:4;stroke-linecap:round;stroke-miterlimit:10;}
</style>
<g>
	<g>
		<circle class="st0" cx="127.3" cy="127.8" r="8.8"/>
		<path class="st1" d="M51.7,127.8c0-52.1,38.9-95.2,89.2-101.8c-4.4-0.6-8.9-0.9-13.5-0.9c-56.7,0-102.7,46-102.7,102.7
			s46,102.7,102.7,102.7c4.6,0,9.1-0.3,13.5-0.9C90.5,223.1,51.7,180,51.7,127.8z"/>
	</g>
	<g>
		<circle class="st2" cx="127.3" cy="127.8" r="8"/>
		<path class="st2" d="M149.6,228.4c-7.1,1.6-14.6,2.4-22.2,2.4c-56.7,0-102.7-46-102.7-102.7s46-102.7,102.7-102.7
			s102.7,46,102.7,102.7c0,8.2-0.9,16.1-2.8,23.7c-0.8,3.2-1.7,6.3-2.7,9.4"/>
		<line class="st2" x1="127.3" y1="34.8" x2="127.3" y2="39.8"/>
		<line class="st2" x1="127.3" y1="67.8" x2="127.3" y2="118.8"/>
		<line class="st2" x1="193.4" y1="62.4" x2="189.8" y2="66"/>
		<line class="st2" x1="220.4" y1="128.8" x2="215.4" y2="128.8"/>
		<line class="st2" x1="181.4" y1="128.8" x2="135.4" y2="128.7"/>
		<line class="st2" x1="126.3" y1="221.8" x2="126.4" y2="215.8"/>
		<line class="st2" x1="60.9" y1="193.6" x2="64.6" y2="189.9"/>
		<line class="st2" x1="34.3" y1="126.8" x2="39.3" y2="126.9"/>
		<line class="st2" x1="62.3" y1="61.5" x2="65.9" y2="65.2"/>
		<g>
			<path class="st2" d="M158.2,174.2L158.2,174.2c0-4.1,3.3-7.4,7.4-7.4H177c3.5,0,6.3,2.8,6.3,6.3v11.8c0,4.4-2.5,8.3-6.4,10.2
				l-7.2,3.5c-5.7,2.8-9.4,8.6-9.4,14.9v9.3h24v-7"/>
			<polyline class="st2" points="200.4,166.8 200.4,194.8 231.4,194.8 			"/>
			<line class="st2" x1="220.4" y1="171.8" x2="220.4" y2="222.8"/>
		</g>
	</g>
</g>
</svg>
