<svg xmlns="http://www.w3.org/2000/svg" viewBox="0 0 256 256" xmlns:v="https://vecta.io/nano"><style><![CDATA[.E{stroke-miterlimit:10}.F{stroke-linecap:round}]]></style><g fill="#d2e9f7"><path d="M61 26.8h14v185H61z"/><path d="M87 229.8H42v-13.1c0-2.7 2.2-4.9 4.8-4.9H87v18z"/></g><path d="M88 54.8h56v9H88zm0 16h56v9H88z" fill="#1594f0"/><g fill="none" stroke="#00194e" stroke-width="4" class="E"><path d="M41.5 226.3V216c0-2.6 2.1-4.7 4.7-4.7h140.6c2.6 0 4.7 2.1 4.7 4.7v10.3m-159 3h167m-28-30v-172a1.11 1.11 0 0 0-1.1-1.1H61.6a1.11 1.11 0 0 0-1.1 1.1v171.9" class="F"/><path d="M151.4 104.3H81.7a2.22 2.22 0 0 1-2.2-2.2V45.4a2.22 2.22 0 0 1 2.2-2.2h69.7c1.2 0 2.1 1 2.1 2.2v56.7c0 1.2-1 2.2-2.1 2.2z"/><g class="F"><path d="M183.4 139.6h0a15.09 15.09 0 0 1 15.1 15.1v34.9c0 6.9 5.6 12.5 12.5 12.5h0c6.9 0 12.5-5.6 12.5-12.5V77.2l-24-25"/><path d="M211.5 66.3v53h11"/></g></g><circle cx="120.3" cy="148.4" r="25.3" fill="#fbda73"/><g fill="none" stroke="#00194e" stroke-width="4"><circle cx="119.9" cy="148.1" r="25.3"/><path d="M113.6 155.2v-.2a4.91 4.91 0 0 0 4.9 4.9h2a4.91 4.91 0 0 0 4.9-4.9h0c0-1.5-.7-2.9-1.9-3.7l-7.3-5.6c-1.2-.9-1.9-2.3-1.9-3.7h0a4.91 4.91 0 0 1 4.9-4.9h2a4.91 4.91 0 0 1 4.9 4.9v-.2m-6.2-8.8v2.4m0 26.1v2.3" class="E F"/></g></svg>