<svg xmlns="http://www.w3.org/2000/svg" viewBox="0 0 256 256" xmlns:v="https://vecta.io/nano"><path d="M213.7 236.7H43.8a6.02 6.02 0 0 1-6-6V123.8a6.02 6.02 0 0 1 6-6h67.7c1.4 0 2.8.5 3.8 1.5l13.2 12.5h85.3a6.02 6.02 0 0 1 6 6v92.9c0 3.3-2.7 6-6.1 6z" fill="#fbda73"/><path d="M154.8 18.8v30.1c0 4.4 3.6 7.9 8 7.9l29.6-.4-37.6-37.6z" fill="#1594f0"/><path d="M81.8 19.7v99h-15V24.4c0-2.5 2.1-4.6 4.6-4.6 0-.1 10.4-.1 10.4-.1z" fill="#d2e9f7"/><g fill="none" stroke="#00194e" stroke-width="4" stroke-miterlimit="10"><path d="M192.3 119.2V58.5c0-.4-.2-.8-.4-1.1l-36.8-37.6c-.3-.3-.7-.5-1.1-.5H70.2c-2.2 0-3.9 1.8-3.9 3.9v80.1" stroke-linecap="round"/><path d="M162.4 57.2h29.8c.2 0 .3-.3.2-.4l-37.7-37.7c-.2-.2-.4 0-.4.2v29.8c0 4.5 3.6 8.1 8.1 8.1z"/><path d="M81.3 53.2h46m-46 24h93m-93 20h70" stroke-linecap="round"/><path d="M211.9 237.2H42.6c-3.5 0-6.4-2.9-6.4-6.4V124.6a6.38 6.38 0 0 1 6.4-6.4H112c1.5 0 2.9.6 4 1.6l14.1 13.4h81.7c3.5 0 6.4 2.9 6.4 6.4v91.3c.1 3.5-2.8 6.3-6.3 6.3z"/><path d="M53.3 201.2h45m-45 16h22" stroke-linecap="round"/></g></svg>