<svg xmlns="http://www.w3.org/2000/svg" viewBox="0 0 256 256" xmlns:v="https://vecta.io/nano"><path d="M137.5 126.1v-46c0-.9.8-1.7 1.7-1.7h18.9c.9 0 1.7.8 1.7 1.7v46h-22.3z" fill="#1594f0"/><path d="M177.3 125.8v-32c0-.9.8-1.7 1.7-1.7h19c.9 0 1.7.8 1.7 1.7v32h-22.4z" fill="#fbda73"/><path d="M81.5 126c-21 0-38 17-38 38s17 38 38 38 38-17 38-38-17-38-38-38zm0 67.1c-16.1 0-29.1-13.1-29.1-29.1s13.1-29.1 29.1-29.1 29.1 13.1 29.1 29.1-13 29.1-29.1 29.1z" fill="#d2e9f7"/><path d="M184.7 31v30.1c0 4.4 3.6 7.9 8 7.9l29.6-.4L184.7 31z" fill="#1594f0"/><g fill="none" stroke="#00194e" stroke-width="4"><circle cx="81.5" cy="164.1" r="38"/><path d="M53.6 193.5l-7.7 7.7m-2.2 13.4l6.8-6.9-10.3-10.3-6.9 6.8m49.2-89.1l.2-80.1c0-2.2 1.8-3.9 3.9-3.9h97.7c.4 0 .8.2 1.1.5l36.7 37.6c.3.3.4.7.4 1.1v150.9c0 2.2-1.8 3.9-3.9 3.9H87.2c-2.6 0-4.7-2.1-4.7-4.7v-5.3" stroke-linecap="round" stroke-miterlimit="10"/><path d="M192.7 69.1h29.8c.2 0 .3-.3.2-.4L184.9 31c-.2-.2-.4 0-.4.2V61c0 4.4 3.7 8.1 8.2 8.1z" stroke-miterlimit="10"/><path d="M63.5 164.1v16m18-34v34m18-24v24m-2-62v-12a.94.94 0 0 1 1-1h20a.94.94 0 0 1 1 1v19m18 1v-47a.94.94 0 0 1 1-1h20a.94.94 0 0 1 1 1v47m18 0v-33a.94.94 0 0 1 1-1h20a.94.94 0 0 1 1 1v33m-79 10h87m-76 30h49m-49 16h72" stroke-miterlimit="10" stroke-linecap="round"/></g></svg>