<svg xmlns="http://www.w3.org/2000/svg" xmlns:xlink="http://www.w3.org/1999/xlink" viewBox="0 0 256 256" xmlns:v="https://vecta.io/nano"><style><![CDATA[.E{stroke-miterlimit:10}.F{stroke-linecap:round}]]></style><path d="M134.5 30.8v30.1c0 4.4 3.6 7.9 8 7.9l29.6-.4-37.6-37.6z" fill="#1594f0"/><path d="M47.5 31.7v192H36.7c-2.3 0-4.2-1.9-4.2-4.1V36.4c0-2.5 2.1-4.6 4.6-4.6 0-.1 10.4-.1 10.4-.1zm28.8 21.1c-.9 0-1.9.1-2.8.4 4.7 1.2 8.1 5.5 8.1 10.5s-3.5 9.3-8.1 10.5c.9.2 1.8.4 2.8.4a10.93 10.93 0 0 0 10.9-10.9c0-6-4.8-10.9-10.9-10.9z" fill="#d2e9f7"/><path d="M198.5 69.7v127l5.4 12 7.6-12-1-127z" fill="#fbda73"/><g fill="none" stroke="#00194e" stroke-width="4"><circle cx="78.5" cy="63.7" r="11.5"/><path d="M100 107.2v-16c0-3.5-2.3-6.6-5.6-7.6l-5.6-1.8c-.7-.2-1.5 0-2 .5l-3.1 3.3M56 106.2V91.3c0-3.5 2.3-6.6 5.6-7.6l5.2-1.6c.8-.3 1.7 0 2.2.7L78 95l-.2 13.2" class="E F"/><path d="M32.4 35.2c0-2.2 1.8-3.9 3.9-3.9h97.5c.4 0 .8.2 1.1.5l36.7 37.6c.3.3.4.7.4 1.1v150.9c0 2.2-1.8 3.9-3.9 3.9H36.7c-2.6 0-4.7-2.1-4.7-4.7l.4-185.4z" class="E"/><path d="M142.2 69.2H172c.2 0 .3-.3.2-.4l-37.7-37.7c-.2-.2-.4 0-.4.2v29.8c-.1 4.5 3.5 8.1 8.1 8.1z" class="E"/><use xlink:href="#B" class="E"/><use xlink:href="#B" y="30" class="E"/><use xlink:href="#B" y="60" class="E"/><path d="M76 130.2h81m-81 13h42m-42 15h81m-81 13h42m-42 17h81m-81 13h42" class="F E"/><path d="M211 69.2v128.9l-5.4 10.1h-2.2l-5.4-10.1V69.2z" class="E"/><path d="M205 211.2v6m-5-156V46c0-2.1 1.7-3.9 3.9-3.9h.3c2.1 0 3.9 1.7 3.9 3.9v15.3M201 196.2h9m-9-109h21.9a1.11 1.11 0 0 1 1.1 1.1v40.9" class="F E"/></g><defs ><path id="B" d="M61.6 139.2H51.4c-.2 0-.4-.2-.4-.4v-10.2c0-.2.2-.4.4-.4h10.2c.2 0 .4.2.4.4v10.2c0 .3-.2.4-.4.4z"/></defs></svg>