<svg xmlns="http://www.w3.org/2000/svg" viewBox="0 0 256 256" xmlns:v="https://vecta.io/nano"><g fill="#1594f0"><path d="M113.3 183.7l6.7 16.2h16.2l4.6-16.3-13.6-9.9z"/><path d="M120.1 200.1l-5.6 36.8h24.8l-4.3-37z"/></g><path d="M72.7 76.9V40.7c0-4.3 3.5-7.8 7.8-7.8h5.2v-1.2c0-9.3 7.5-16.8 16.8-16.8l79.2-.1v19.9c0 9.5-7.7 17.2-17.2 17.2l-78.3-.4-1.4 25.4H72.7z" fill="#fbda73"/><g fill="#d2e9f7"><path d="M168.9 76l2.4-25.2h-14.5l-5.5 65.9c-.4 5.3-3.3 10.2-7.7 13.2l-25.3 16.6 11.1 3.8 28.2-17.5c4.4-3 7.3-7.8 7.7-13.2l1.8-22.7c18.7-7.2 1.8-20.9 1.8-20.9zm-39.2 74.9v21.2l26-18v-18.5z"/><path d="M195.7 168.2l-40.5-14.1-12.9 8.9 39.3 13.2c19.7 6.9 32.9 25.5 32.9 46.4V241l14 .4v-26.8c.2-21-13-39.6-32.8-46.4z"/></g><g fill="none" stroke="#00194e" stroke-width="4" stroke-miterlimit="10"><path d="M78.6 89.4a11.34 11.34 0 0 0 9.2 8.5l1.8 22c.5 6.8 4.5 12.8 10.5 16l14.6 9.6c3.7 2.4 8.1 3.8 12.5 3.8h0c4.3 0 8.6-1.2 12.2-3.6l15.5-9.8c6-3.1 10-9.2 10.5-16l1.8-22.4c3.7-1.2 6.7-4.2 7.6-8.2l.4-1.7c1.1-4.5-2.1-8.7-6.5-9.2l1.6-17" stroke-linecap="round"/><path d="M118.5 199.9l-5.3-16.2v-.1l13.7-9.9h.2l13.6 9.9v.1l-5.3 16.2h-16.9z"/><path d="M134.4 199.5l5 36.9c.1.8 1.1 1 1.5.3l40.2-71.9M120 199.5l-5 36.9c-.1.8-1.2 1-1.5.3l-41.1-71.9" stroke-linecap="round"/><path d="M183.1 16.3v16.5A18.1 18.1 0 0 1 165 50.9H93.5c-5 0-9.1 4-9.1 9v16.5a1.79 1.79 0 0 1-1.8 1.8h-8.4a1.79 1.79 0 0 1-1.8-1.8V37.8c2.1-6.3 8.1-6.1 10.9-5.6.8.2 1.6-.5 1.7-1.3.9-9 8.5-16.1 17.8-16.1h78.7c.9-.1 1.6.6 1.6 1.5z"/><path d="M101.7 156.8l25.1 16.7-22.7 16.5a2.35 2.35 0 0 1-3.7-1.4l-3.8-18.1m55.6-13.7l-25.1 16.7 22.8 16.5a2.35 2.35 0 0 0 3.7-1.4l4.1-19.6m70.9 70.7v-25c0-20.7-13.1-39.1-32.7-45.8L155.2 155v-8M27.3 239.7v-25c0-20.7 13.1-39.1 32.7-45.8l40.7-13.9v-8" stroke-linecap="round"/></g></svg>